<svg id="Layer_1" data-name="Layer 1" xmlns="http://www.w3.org/2000/svg" viewBox="0 0 868.86 941.71"><defs><style>.cls-1{fill:#eda85b;}</style></defs><path class="cls-1" d="M130.94,812.94c-18.21-23.78-37.12-47.33-56.84-70.3-.35,23.32,0,47,1.05,70.3H54.27c.92-28.77.92-57.65,0-86.42,7.65.93,21.11,1.16,28.76,0q26.81,36,56,71c.35-23.66.12-47.44-1-71a64.9,64.9,0,0,0,20.64,0c-.81,28.77-.69,57.65.35,86.42Z"/><path class="cls-1" d="M223.81,769.56c0-28.66,21.69-45.24,58.35-45.24s58.23,16.7,58.23,45.24-21.58,45.12-58.23,45.12S223.81,798.09,223.81,769.56Zm96.63.46c0-20.42-14.39-32.6-38.28-32.6C258,737.42,244,749.6,244,770c0,20.18,14,31.67,38.16,31.67C306.05,801.69,320.44,790.2,320.44,770Z"/><path class="cls-1" d="M405.19,812.94c1.39-21.69,1.39-64.84,0-86.42,19.95.35,32.13-.35,50.69-.35,32.36,0,47.56,8,47.56,25.29,0,22-26.22,25.75-38.17,25.75v1.51c23,3.94,35.85,21.46,41.76,34.22H479.54c-3.94-21.81-14.85-30.39-38.74-32.13-5.57-.35-10.21-.47-15.08-.47.23,15.78.58,23.55,1.28,32.6Zm46.63-43.85c19.72,0,30.39-4.17,30.39-15.54,0-10.56-10.44-14.27-26.91-14.27-11.14,0-22.39.35-29.35.35-.23,8.93-.35,18.33-.35,28.65C433.61,768.51,442.89,769.09,451.82,769.09Z"/><path class="cls-1" d="M603.92,812.94c1.16-18.1,1.27-49.53.69-73.31A288.87,288.87,0,0,0,563,742.76a47.61,47.61,0,0,0,0-16.24c38.4.93,65.66.93,103.94,0a47.61,47.61,0,0,0,0,16.24A292.51,292.51,0,0,0,625,739.63c-.58,23.89-.23,55.21.93,73.31Z"/><path class="cls-1" d="M805.84,812.94c.58-8.7.92-20.88,1-33.76a503.19,503.19,0,0,0-59.16.12c.12,12.87.47,25.05,1.16,33.64H727.77c1.39-21.69,1.39-64.73,0-86.42a66.45,66.45,0,0,0,20.88,0c-.58,9.86-.93,24.24-1,39a504.91,504.91,0,0,0,59.27.11c-.12-14.73-.46-29.11-1-39.09a65.68,65.68,0,0,0,20.76,0c-1.28,21.69-1.28,65,.35,86.42Z"/><path class="cls-1" d="M55.46,940.94v-49H69.88a18.51,18.51,0,0,1,10.43,3,20.54,20.54,0,0,1,7.18,8.51,33.39,33.39,0,0,1,0,25.93,20.44,20.44,0,0,1-7.18,8.54,18.44,18.44,0,0,1-10.43,3Zm8.4-7.14h5.25a10.57,10.57,0,0,0,6.51-2.1,13.87,13.87,0,0,0,4.41-6,27.72,27.72,0,0,0,0-18.62,13.93,13.93,0,0,0-4.41-6,10.57,10.57,0,0,0-6.51-2.1H63.86Z"/><path class="cls-1" d="M123.88,940.94v-49h32.06v7.14H132.28v13.65h15.33v7H132.28V933.8h23.94v7.14Z"/><path class="cls-1" d="M207,941.71a26.92,26.92,0,0,1-9.8-1.78A34.8,34.8,0,0,1,188,934.5l4.41-6.3a36.93,36.93,0,0,0,7.84,5,17.12,17.12,0,0,0,6.93,1.47,12.08,12.08,0,0,0,4.93-.94,7.85,7.85,0,0,0,3.32-2.63,6.34,6.34,0,0,0,1.19-3.78,5.43,5.43,0,0,0-1.5-4.06,10.68,10.68,0,0,0-3.92-2.34,40.18,40.18,0,0,0-5.32-1.51c-1.94-.42-3.88-.91-5.85-1.47a23,23,0,0,1-5.35-2.27,11,11,0,0,1-3.88-3.92,12.46,12.46,0,0,1-1.47-6.41,13.36,13.36,0,0,1,2.06-7.45,13.74,13.74,0,0,1,5.88-5,20.85,20.85,0,0,1,8.92-1.79,29.41,29.41,0,0,1,9.42,1.51,29.76,29.76,0,0,1,8.65,4.65L220,903.56a29.66,29.66,0,0,0-7-4.09,18.87,18.87,0,0,0-7-1.37,10,10,0,0,0-6.31,1.86,5.69,5.69,0,0,0-2.38,4.65,5.43,5.43,0,0,0,1.47,4,10.1,10.1,0,0,0,4,2.31,48.78,48.78,0,0,0,5.43,1.47c1.95.42,3.92.92,5.87,1.51a23.26,23.26,0,0,1,5.4,2.34,11.35,11.35,0,0,1,4,4,12.6,12.6,0,0,1,1.5,6.51,13.69,13.69,0,0,1-2.24,7.74,15.17,15.17,0,0,1-6.26,5.32A21.63,21.63,0,0,1,207,941.71Z"/><path class="cls-1" d="M270.8,940.94V899.08H255.61v-7.14h38.78v7.14H279.2v41.86Z"/><path class="cls-1" d="M326.22,940.94V933.8h12.32V899.08H326.22v-7.14h33v7.14H346.94V933.8h12.32v7.14Z"/><path class="cls-1" d="M392.36,940.94v-49h8.47l17.71,34.3-.14-34.3h7.14v49h-7.77l-18.41-35.42.14,35.42Z"/><path class="cls-1" d="M456.89,940.94l15.4-49h9.94l15.4,49h-8.54l-3.57-11.83H468.65l-3.5,11.83Zm13.65-18.34H483.7l-6.58-21.77Z"/><path class="cls-1" d="M535.92,940.94V899.08H520.74v-7.14h38.77v7.14H544.33v41.86Z"/><path class="cls-1" d="M591.34,940.94V933.8h12.32V899.08H591.34v-7.14h33v7.14H612.06V933.8h12.32v7.14Z"/><path class="cls-1" d="M673.34,941.71a16.62,16.62,0,0,1-9.52-2.94,20.31,20.31,0,0,1-6.93-8.57,37.82,37.82,0,0,1,0-27.51,20.28,20.28,0,0,1,6.93-8.58,16.83,16.83,0,0,1,19,0,20.58,20.58,0,0,1,6.93,8.58,37.42,37.42,0,0,1,0,27.51,20.61,20.61,0,0,1-6.93,8.57A16.48,16.48,0,0,1,673.34,941.71Zm0-7.56a8.22,8.22,0,0,0,5.36-2,13.23,13.23,0,0,0,3.81-5.95,29.62,29.62,0,0,0,1.4-9.77,29.32,29.32,0,0,0-1.4-9.73,13.51,13.51,0,0,0-3.81-6,8.08,8.08,0,0,0-10.71,0,13.52,13.52,0,0,0-3.82,6,29.32,29.32,0,0,0-1.4,9.73,29.62,29.62,0,0,0,1.4,9.77,13.24,13.24,0,0,0,3.82,5.95A8.19,8.19,0,0,0,673.34,934.15Z"/><path class="cls-1" d="M725.43,940.94v-49h8.47l17.71,34.3-.14-34.3h7.14v49h-7.77l-18.41-35.42.14,35.42Z"/><path class="cls-1" d="M810.08,941.71a26.92,26.92,0,0,1-9.8-1.78,34.8,34.8,0,0,1-9.17-5.43l4.41-6.3a36.93,36.93,0,0,0,7.84,5,17.12,17.12,0,0,0,6.93,1.47,12.08,12.08,0,0,0,4.93-.94,7.88,7.88,0,0,0,3.33-2.63,6.41,6.41,0,0,0,1.19-3.78,5.4,5.4,0,0,0-1.51-4.06,10.68,10.68,0,0,0-3.92-2.34,40.18,40.18,0,0,0-5.32-1.51q-2.9-.63-5.84-1.47a22.87,22.87,0,0,1-5.36-2.27,11,11,0,0,1-3.88-3.92,12.46,12.46,0,0,1-1.47-6.41,13.44,13.44,0,0,1,2.06-7.45,13.74,13.74,0,0,1,5.88-5,20.9,20.9,0,0,1,8.93-1.79,29.39,29.39,0,0,1,9.41,1.51,29.76,29.76,0,0,1,8.65,4.65l-4.27,6.23a29.47,29.47,0,0,0-7-4.09,18.87,18.87,0,0,0-7-1.37,9.92,9.92,0,0,0-6.3,1.86,5.66,5.66,0,0,0-2.38,4.65,5.39,5.39,0,0,0,1.47,4,10.06,10.06,0,0,0,4,2.31,49.39,49.39,0,0,0,5.43,1.47q2.94.63,5.88,1.51a23.37,23.37,0,0,1,5.39,2.34,11.35,11.35,0,0,1,4,4,12.5,12.5,0,0,1,1.51,6.51,13.77,13.77,0,0,1-2.24,7.74,15.2,15.2,0,0,1-6.27,5.32A21.63,21.63,0,0,1,810.08,941.71Z"/><path class="cls-1" d="M83.79,395.16C56.13,387.22,28.12,380.15,0,374c2.83-6.94,5-14.42,5.34-21.14,15.57,5.13,50.49,14.19,71,18.76,4.18-16.53,11.75-53.62,13-69.46a107.74,107.74,0,0,0,16.87,4.26Z"/><path class="cls-1" d="M183.18,191.68c-5.89-2-12.05-4.11-18.36-6.1C155,196.9,142,212.92,132.75,224.84c3.27,6.1,6.59,11.94,9.45,17.25l-14.34,17.64c-13.47-29-27.69-57.34-42.33-84.94,6.08-5.82,16.61-18,20.71-25.47,30,8.69,60.77,16.65,91.94,23.91Zm-30.63-10a440.67,440.67,0,0,0-48.64-12.63c3.84,9.25,13.16,26.85,22.74,44.5C134.75,204.18,145,191.58,152.55,181.73Z"/><path class="cls-1" d="M302.42,47.55c8,16.34,3.48,32.28-26.28,46.93l-28.31,13.93c4.82,9,9.38,17.23,13.34,23.43l-19.78,9.73c-8-19.35-27.33-58.69-38.15-77.54,18.57-8.75,28.15-14.24,44.7-22.38C276.46,27.62,293,28.29,302.42,47.55Zm-17.59,10c-5.58-11.35-16.43-11.31-34.64-2.35-6.87,3.38-15.77,8.15-22.95,11.68,4.4,9.47,9.72,20.3,14.95,30.65,8.12-3.73,16-7.37,24-11.31C284.34,77.26,289.9,67.8,284.83,57.5Z"/><path class="cls-1" d="M381.34,87.19c-.18-28.78-1.28-57.64-3.31-86.36,7.46.76,15.23.7,21.79-.83-.53,16.39.62,52.45,2,73.4,17-.65,54.76-3.84,70.3-7.1a109,109,0,0,0,.67,17.39Z"/><path class="cls-1" d="M604.68,124.79c.2-6.21.53-12.73.65-19.34-13.63-6.19-32.69-14.14-46.74-19.62-4.92,4.86-9.58,9.7-13.86,14l-21-8.75c24-21.15,47.13-42.81,69.45-64.67,7.31,4.18,22,10.82,30.3,12.64.17,31.24,1.25,63,3.13,94.94Zm.86-32.2a439.16,439.16,0,0,0-1.67-50.22c-7.79,6.31-22,20.23-36.23,34.41C579,81.88,594,88.14,605.54,92.59Z"/><path class="cls-1" d="M720.43,223c5.72-29.41,10.79-59.18,14.9-89.17-17.68,15.21-35.16,31.17-51.91,47.41l-13.85-15.62q33.21-27.59,64.67-57.33c4.38,6.34,13.13,16.57,19.08,21.53q-9.18,44-16,89C755.3,203.43,773,187.48,789.8,171a64.69,64.69,0,0,0,13.7,15.46Q770.4,214.15,739.05,244Z"/><path class="cls-1" d="M851.86,276.1c5.63,21.3,9.34,33,13.37,48.3,9.66,36.56-.2,62.32-26.44,69.26-26.7,7-48.47-11.31-58.55-49.44-3.79-14.35-7.75-30.22-11.93-46C787.93,294.32,832.9,282.43,851.86,276.1Zm-65.15,38.58c1.5,6.56,3.34,16.27,6,26.25,6.82,25.8,22,38.22,40.94,33.21,18.61-4.92,25.49-22.93,18.79-48.28-2-7.4-5-16.67-7.54-26.68C825.17,304,806.36,309.12,786.71,314.68Z"/><path class="cls-1" d="M727,566.21l-17.18-8.71a175.25,175.25,0,0,1-21.39-12.8l-2.59-1.81a139.89,139.89,0,0,0-13.25-8.22l-14.72-8c-5.23-2.51-9.87-4.52-14.07-6.11-1.89-.72-3.76-1.49-5.59-2.35-11.93-5.64-21-7.92-28.66-8.4a46.65,46.65,0,0,0-11.31.74q-5,.9-10,2.06c-2.88.66-5.77,1.39-8.65,2.19l-8.72,2.64a2.42,2.42,0,0,0-1.75,2.53,2.34,2.34,0,0,0,2.43,2.06l1.58-.08c4.61-.2,9.49,3.53,11.91,5.52l13.15,10.8a5.56,5.56,0,0,1,.55.52l.11.13.1.11a3.25,3.25,0,0,1-2.48,5.38,3.75,3.75,0,0,1-2.34-.93l-1.1-.88a67.8,67.8,0,0,0-17.5-10.12c-2.7-1.05-5.29-2.14-7.08-2.9-14.65-6.18-30.62-14.38-40.07-22-13.51-10.91-45.91-25.46-77.63-24.41-18,.59-56.1,4.56-70.37,6.33-4,.49-8,.9-12,1.16a241.61,241.61,0,0,0-42.92,6.73C308,501.74,290,506.6,275.58,512.31l-34.51,14a289.07,289.07,0,0,0-31.34,13L154.7,566l-.17.09c-6.72,3.33-4.26,13.49,3.24,13.5-.62.05,26.53,0,45.26,0a89.34,89.34,0,0,0,33.37-6.49h0c2.18-.87,4.57-1.84,7-2.91,8-3.44,15.41-7,22.44-13.09l9-8a2.07,2.07,0,0,1,3.52,1.51,2,2,0,0,1-.38,1.08,82.1,82.1,0,0,1-13,16.07c-2.28,2.4-5.71,4.51-7.1,7.79a3.1,3.1,0,0,0,3,4H502.68a3.08,3.08,0,0,0,2.9-4.11,3.16,3.16,0,0,0-.79-1.24l-4.38-4.55a15,15,0,0,1-3.7-5.08,2.07,2.07,0,0,1,3.29-2.27,62.39,62.39,0,0,0,17.16,10.33,97.88,97.88,0,0,0,36.16,6.92H723.43C730.74,579.54,733.39,569.75,727,566.21Z"/><path class="cls-1" d="M439.21,636.3c-6.19,0-10.74.2-15.13.39s-8.8.37-14.84.37-9-.14-12.07-.3-6.2-.3-12.4-.3a3.4,3.4,0,1,0,0,6.79c6,0,9,.14,12.06.3s6.21.3,12.41.3,10.73-.19,15.13-.38,8.79-.38,14.84-.38a3.4,3.4,0,0,0,0-6.79Z"/><path class="cls-1" d="M496.45,636.48c-7.85,0-11.71,0-15.44.07s-7.55.07-15.37.07a3.4,3.4,0,1,0,0,6.79c7.85,0,11.71,0,15.44-.07s7.55-.07,15.37-.07a3.4,3.4,0,1,0,0-6.79Z"/><path class="cls-1" d="M324.29,600.75a3.4,3.4,0,0,0-3.39-3.4c-5.59,0-8.3-.12-11.18-.26s-5.74-.26-11.49-.26-8.66.13-11.48.26-5.59.25-11.19.25a3.39,3.39,0,1,0,0,6.78c5.75,0,8.67-.13,11.49-.25s5.59-.25,11.18-.25,8.3.12,11.18.26,5.74.26,11.49.26A3.39,3.39,0,0,0,324.29,600.75Z"/><path class="cls-1" d="M373.91,604.12c9.08-.06,18.48-.13,24.63-.13s9.37-.09,12.42-.17,6.12-.17,12.24-.17c6.28,0,9.2-.21,12-.4s5.51-.39,11.56-.39a94,94,0,0,1,10.93.48,99,99,0,0,0,11.59.52,3.4,3.4,0,1,0,0-6.79,96.29,96.29,0,0,1-10.93-.48,99,99,0,0,0-11.59-.52c-6.29,0-9.21.2-12,.4s-5.51.39-11.55.39c-6.22,0-9.37.09-12.43.17s-6.11.17-12.23.17-15.58.07-24.68.13-18.48.13-24.63.13a3.4,3.4,0,0,0,0,6.79C355.41,604.25,364.81,604.19,373.91,604.12Z"/><path class="cls-1" d="M605.65,597.32c-7,0-10.45-.28-14.06-.58s-7.32-.6-14.63-.6-10.93.16-14.49.32-7.1.3-14.2.3-9.79-.12-12.41-.25-5.47-.25-12.72-.25-10.46.22-13.52.44-6,.43-13,.43a3.4,3.4,0,0,0,0,6.79c7.29,0,10.46-.22,13.52-.44s6-.43,13-.43,9.79.12,12.41.25,5.47.25,12.72.25,10.93-.16,14.49-.31,7.1-.31,14.2-.31,10.45.28,14.07.58,7.31.6,14.62.6a3.4,3.4,0,1,0,0-6.79Z"/><path class="cls-1" d="M560.31,617.05c-6.8,0-17.77.15-28.38.29s-21.54.29-28.29.29-17-.38-27-.74-20.38-.75-27.21-.75-14.14.3-21.19.58-14.22.57-20.92.57-10.94-.22-15.05-.44-8.55-.45-15.41-.45a3.4,3.4,0,1,0,0,6.79c6.68,0,10.94.22,15.05.44s8.55.45,15.41.45,14.14-.3,21.19-.58,14.22-.57,20.92-.57,17,.38,27,.74,20.38.74,27.21.74,17.77-.14,28.38-.28,21.54-.29,28.29-.29a3.4,3.4,0,0,0,0-6.79Z"/><path class="cls-1" d="M350.39,616.89c-7.4,0-11.17.07-14.81.14s-7.33.14-14.67.14a3.4,3.4,0,1,0,0,6.79c7.4,0,11.16-.07,14.8-.14s7.34-.14,14.68-.14a3.4,3.4,0,0,0,0-6.79Z"/><path class="cls-1" d="M238.37,448.16a2.22,2.22,0,0,0,2.3,1.74,2.39,2.39,0,0,0,2.18-1.86l.34-1.34a16,16,0,0,1,8.68-10.7,15.51,15.51,0,0,1,10.85.05c29.75,11.73,25.94,8.7,59-12.11,8.65-5.23,18.78-4.68,28.18-2.19,37.48,10.92,40.56,13.09,59.74-2.32,4.57-3.67,10.06-8.34,17.15-14.14,7.36-5.71,17.28-7.73,24.73-1.39,8.39,7.15,13.66,11.65,18.24,15.53,7.2,6.12,12.67,10.74,25.75,21.77,4.47,3.77,10.21,5.67,16,6.69,3.82.68,7.33,1.65,10.6,5.87a52.71,52.71,0,0,1,4.65,6c3.73,5.46,7.22,11.23,13.28,14,12.18,4.09,23.24-5.23,32.65-14,4.1-3.82,7.9-7.54,11.33-10,7.14-4.9,16.12-3.86,25.26-6.11,5.26-1.29,7.73-3.17,11.83-5.65a10.2,10.2,0,0,1,7.28-1.07,13.33,13.33,0,0,1,9.73,10l.29,1.11a2.4,2.4,0,0,0,2.2,1.85,2.24,2.24,0,0,0,2.3-1.78c0-.18.09-1,.1-1.27,0,0,.23-5.17.2-7.72q-.09-10-1.11-19.7a208.41,208.41,0,0,0-6.62-34.79c-1.11-3.94-7.08-27.44-14.18-40.89a121.42,121.42,0,0,0-13.52-19.45q-2.81-3.36-5.42-6.86c-3.67-4.9-8.94-11.74-11.75-15.36a120.53,120.53,0,0,0-15.94-16.28c-23.72-19.62-40-32.47-71.1-41.82-7-2.1-21.46-5.47-24.22-6.11-14.71-3.62-20.25-4.08-36.2-2.89-9.94.74-35.55-.58-54.5,4.77-10.51,3-18.08,6.13-28.12,10.44-18.33,8.41-32.46,13.47-47,25C307,280.28,297,293.08,293.87,298c-3.48,5.4-22.8,29.36-29.8,41.77A201.19,201.19,0,0,0,239,419.43q-.94,9.74-1,19.7c0,2.42.08,4.84.19,7.24C238.24,446.37,238.3,447.88,238.37,448.16Z"/></svg>