<svg width="186" height="131" viewBox="0 0 186 131" fill="none" xmlns="http://www.w3.org/2000/svg">
    <g filter="url(#filter0_ddd_53_6137)">
        <rect x="95.5447" y="23" width="67" height="78" rx="8" transform="rotate(10 95.5447 23)" fill="#0068A0"/>
    </g>
    <g filter="url(#filter1_ddd_53_6137)">
        <rect x="65" y="31.4097" width="67" height="78" rx="8" transform="rotate(-10 65 31.4097)" fill="#69B7E1"/>
    </g>
    <g filter="url(#filter2_ddddd_53_6137)">
        <rect x="80.2634" y="17" width="67" height="78" rx="8" fill="url(#paint0_linear_53_6137)"/>
        <rect x="80.2634" y="17" width="67" height="78" rx="8" fill="url(#paint1_linear_53_6137)"/>
        <mask id="mask0_53_6137" style="mask-type:alpha" maskUnits="userSpaceOnUse" x="97" y="39" width="33"
              height="32">
            <rect x="97.2634" y="39" width="32" height="32" fill="#D9D9D9"/>
        </mask>
        <g mask="url(#mask0_53_6137)">
            <path d="M121.963 50.0665C121.852 50.0665 121.736 50.0332 121.613 49.9665C121.491 49.8999 121.408 49.7999 121.363 49.6665L120.497 47.7999L118.63 46.9332C118.497 46.8887 118.397 46.8054 118.33 46.6832C118.263 46.561 118.23 46.4443 118.23 46.3332C118.23 46.2221 118.263 46.1054 118.33 45.9832C118.397 45.861 118.497 45.7776 118.63 45.7332L120.497 44.8665L121.363 42.9999C121.408 42.8665 121.491 42.7665 121.613 42.6999C121.736 42.6332 121.852 42.5999 121.963 42.5999C122.075 42.5999 122.191 42.6332 122.313 42.6999C122.436 42.7665 122.519 42.8665 122.563 42.9999L123.43 44.8665L125.297 45.7332C125.43 45.7776 125.53 45.861 125.597 45.9832C125.663 46.1054 125.697 46.2221 125.697 46.3332C125.697 46.4443 125.663 46.561 125.597 46.6832C125.53 46.8054 125.43 46.8887 125.297 46.9332L123.43 47.7999L122.563 49.6665C122.519 49.7999 122.436 49.8999 122.313 49.9665C122.191 50.0332 122.075 50.0665 121.963 50.0665ZM124.63 59.4332C124.519 59.4332 124.408 59.3999 124.297 59.3332C124.186 59.2665 124.097 59.1776 124.03 59.0665L123.563 58.0665L122.563 57.5999C122.497 57.5554 122.375 57.3554 122.197 56.9999C122.197 56.8887 122.23 56.7776 122.297 56.6665C122.363 56.5554 122.452 56.4665 122.563 56.3999L123.563 55.9332L124.03 54.9332C124.075 54.8665 124.275 54.7443 124.63 54.5665C124.741 54.5665 124.852 54.5999 124.963 54.6665C125.075 54.7332 125.163 54.8221 125.23 54.9332L125.697 55.9332L126.697 56.3999C126.763 56.4443 126.886 56.6443 127.063 56.9999C127.063 57.111 127.03 57.2221 126.963 57.3332C126.897 57.4443 126.808 57.5332 126.697 57.5999L125.697 58.0665L125.23 59.0665C125.186 59.1332 124.986 59.2554 124.63 59.4332ZM108.463 68.3332C108.13 68.3332 107.841 68.2221 107.597 67.9999C107.352 67.7776 107.208 67.4999 107.163 67.1665L106.897 65.1999C106.719 65.1332 106.547 65.0443 106.38 64.9332C106.213 64.8221 106.075 64.711 105.963 64.5999L104.13 65.3999C103.819 65.5332 103.502 65.5499 103.18 65.4499C102.858 65.3499 102.608 65.1443 102.43 64.8332L100.297 61.0999C100.119 60.7887 100.063 60.4721 100.13 60.1499C100.197 59.8276 100.375 59.5665 100.663 59.3665L102.23 58.1999V57.1332L100.663 55.9665C100.375 55.7665 100.197 55.5054 100.13 55.1832C100.063 54.861 100.119 54.5443 100.297 54.2332L102.43 50.4999C102.608 50.1887 102.858 49.9832 103.18 49.8832C103.502 49.7832 103.819 49.7999 104.13 49.9332L105.963 50.7332C106.075 50.6221 106.213 50.511 106.38 50.3999C106.547 50.2887 106.719 50.1999 106.897 50.1332L107.163 48.1665C107.208 47.8332 107.352 47.5554 107.597 47.3332C107.841 47.111 108.13 46.9999 108.463 46.9999H112.797C113.13 46.9999 113.419 47.111 113.663 47.3332C113.908 47.5554 114.052 47.8332 114.097 48.1665L114.363 50.1332C114.541 50.1999 114.713 50.2887 114.88 50.3999C115.047 50.511 115.186 50.6221 115.297 50.7332L117.13 49.9332C117.441 49.7999 117.758 49.7832 118.08 49.8832C118.402 49.9832 118.652 50.1887 118.83 50.4999L120.963 54.2332C121.141 54.5443 121.197 54.861 121.13 55.1832C121.063 55.5054 120.886 55.7665 120.597 55.9665L119.03 57.1332V58.1999L120.597 59.3665C120.886 59.5665 121.063 59.8276 121.13 60.1499C121.197 60.4721 121.141 60.7887 120.963 61.0999L118.83 64.8332C118.652 65.1443 118.402 65.3499 118.08 65.4499C117.758 65.5499 117.441 65.5332 117.13 65.3999L115.297 64.5999C115.186 64.711 115.047 64.8221 114.88 64.9332C114.713 65.0443 114.541 65.1332 114.363 65.1999L114.097 67.1665C114.052 67.4999 113.908 67.7776 113.663 67.9999C113.419 68.2221 113.13 68.3332 112.797 68.3332H108.463ZM110.63 61.6665C111.741 61.6665 112.686 61.2776 113.463 60.4999C114.241 59.7221 114.63 58.7776 114.63 57.6665C114.63 56.5554 114.241 55.611 113.463 54.8332C112.686 54.0554 111.741 53.6665 110.63 53.6665C109.519 53.6665 108.575 54.0554 107.797 54.8332C107.019 55.611 106.63 56.5554 106.63 57.6665C106.63 58.7776 107.019 59.7221 107.797 60.4999C108.575 61.2776 109.519 61.6665 110.63 61.6665Z"
                  fill="url(#paint2_linear_53_6137)"/>
        </g>
    </g>
    <defs>
        <filter id="filter0_ddd_53_6137" x="71.9829" y="23" width="99.5612" height="110.988"
                filterUnits="userSpaceOnUse" color-interpolation-filters="sRGB">
            <feFlood flood-opacity="0" result="BackgroundImageFix"/>
            <feColorMatrix in="SourceAlpha" type="matrix" values="0 0 0 0 0 0 0 0 0 0 0 0 0 0 0 0 0 0 127 0"
                           result="hardAlpha"/>
            <feOffset dy="2.76726"/>
            <feGaussianBlur stdDeviation="1.1069"/>
            <feColorMatrix type="matrix" values="0 0 0 0 0 0 0 0 0 0 0 0 0 0 0 0 0 0 0.0196802 0"/>
            <feBlend mode="normal" in2="BackgroundImageFix" result="effect1_dropShadow_53_6137"/>
            <feColorMatrix in="SourceAlpha" type="matrix" values="0 0 0 0 0 0 0 0 0 0 0 0 0 0 0 0 0 0 127 0"
                           result="hardAlpha"/>
            <feOffset dy="6.6501"/>
            <feGaussianBlur stdDeviation="2.66004"/>
            <feColorMatrix type="matrix" values="0 0 0 0 0 0 0 0 0 0 0 0 0 0 0 0 0 0 0.0282725 0"/>
            <feBlend mode="normal" in2="effect1_dropShadow_53_6137" result="effect2_dropShadow_53_6137"/>
            <feColorMatrix in="SourceAlpha" type="matrix" values="0 0 0 0 0 0 0 0 0 0 0 0 0 0 0 0 0 0 127 0"
                           result="hardAlpha"/>
            <feOffset dy="12.5216"/>
            <feGaussianBlur stdDeviation="5.00862"/>
            <feColorMatrix type="matrix" values="0 0 0 0 0 0 0 0 0 0 0 0 0 0 0 0 0 0 0.035 0"/>
            <feBlend mode="normal" in2="effect2_dropShadow_53_6137" result="effect3_dropShadow_53_6137"/>
            <feBlend mode="normal" in="SourceGraphic" in2="effect3_dropShadow_53_6137" result="shape"/>
        </filter>
        <filter id="filter1_ddd_53_6137" x="54.9828" y="19.7751" width="99.5612" height="110.988"
                filterUnits="userSpaceOnUse" color-interpolation-filters="sRGB">
            <feFlood flood-opacity="0" result="BackgroundImageFix"/>
            <feColorMatrix in="SourceAlpha" type="matrix" values="0 0 0 0 0 0 0 0 0 0 0 0 0 0 0 0 0 0 127 0"
                           result="hardAlpha"/>
            <feOffset dy="2.76726"/>
            <feGaussianBlur stdDeviation="1.1069"/>
            <feColorMatrix type="matrix" values="0 0 0 0 0 0 0 0 0 0 0 0 0 0 0 0 0 0 0.0196802 0"/>
            <feBlend mode="normal" in2="BackgroundImageFix" result="effect1_dropShadow_53_6137"/>
            <feColorMatrix in="SourceAlpha" type="matrix" values="0 0 0 0 0 0 0 0 0 0 0 0 0 0 0 0 0 0 127 0"
                           result="hardAlpha"/>
            <feOffset dy="6.6501"/>
            <feGaussianBlur stdDeviation="2.66004"/>
            <feColorMatrix type="matrix" values="0 0 0 0 0 0 0 0 0 0 0 0 0 0 0 0 0 0 0.0282725 0"/>
            <feBlend mode="normal" in2="effect1_dropShadow_53_6137" result="effect2_dropShadow_53_6137"/>
            <feColorMatrix in="SourceAlpha" type="matrix" values="0 0 0 0 0 0 0 0 0 0 0 0 0 0 0 0 0 0 127 0"
                           result="hardAlpha"/>
            <feOffset dy="12.5216"/>
            <feGaussianBlur stdDeviation="5.00862"/>
            <feColorMatrix type="matrix" values="0 0 0 0 0 0 0 0 0 0 0 0 0 0 0 0 0 0 0.035 0"/>
            <feBlend mode="normal" in2="effect2_dropShadow_53_6137" result="effect3_dropShadow_53_6137"/>
            <feBlend mode="normal" in="SourceGraphic" in2="effect3_dropShadow_53_6137" result="shape"/>
        </filter>
        <filter id="filter2_ddddd_53_6137" x="0.263428" y="-18" width="227" height="238" filterUnits="userSpaceOnUse"
                color-interpolation-filters="sRGB">
            <feFlood flood-opacity="0" result="BackgroundImageFix"/>
            <feColorMatrix in="SourceAlpha" type="matrix" values="0 0 0 0 0 0 0 0 0 0 0 0 0 0 0 0 0 0 127 0"
                           result="hardAlpha"/>
            <feOffset dy="1.5457"/>
            <feGaussianBlur stdDeviation="1.37396"/>
            <feColorMatrix type="matrix" values="0 0 0 0 0.223529 0 0 0 0 0.380392 0 0 0 0 0.54902 0 0 0 0.07 0"/>
            <feBlend mode="normal" in2="BackgroundImageFix" result="effect1_dropShadow_53_6137"/>
            <feColorMatrix in="SourceAlpha" type="matrix" values="0 0 0 0 0 0 0 0 0 0 0 0 0 0 0 0 0 0 127 0"
                           result="hardAlpha"/>
            <feOffset dy="3.9092"/>
            <feGaussianBlur stdDeviation="3.47484"/>
            <feColorMatrix type="matrix" values="0 0 0 0 0.223529 0 0 0 0 0.380392 0 0 0 0 0.54902 0 0 0 0.0482987 0"/>
            <feBlend mode="normal" in2="effect1_dropShadow_53_6137" result="effect2_dropShadow_53_6137"/>
            <feColorMatrix in="SourceAlpha" type="matrix" values="0 0 0 0 0 0 0 0 0 0 0 0 0 0 0 0 0 0 127 0"
                           result="hardAlpha"/>
            <feOffset dy="7.97439"/>
            <feGaussianBlur stdDeviation="7.08835"/>
            <feColorMatrix type="matrix" values="0 0 0 0 0.223529 0 0 0 0 0.380392 0 0 0 0 0.54902 0 0 0 0.0389404 0"/>
            <feBlend mode="normal" in2="effect2_dropShadow_53_6137" result="effect3_dropShadow_53_6137"/>
            <feColorMatrix in="SourceAlpha" type="matrix" values="0 0 0 0 0 0 0 0 0 0 0 0 0 0 0 0 0 0 127 0"
                           result="hardAlpha"/>
            <feOffset dy="16.4257"/>
            <feGaussianBlur stdDeviation="14.6007"/>
            <feColorMatrix type="matrix" values="0 0 0 0 0.223529 0 0 0 0 0.380392 0 0 0 0 0.54902 0 0 0 0.0310596 0"/>
            <feBlend mode="normal" in2="effect3_dropShadow_53_6137" result="effect4_dropShadow_53_6137"/>
            <feColorMatrix in="SourceAlpha" type="matrix" values="0 0 0 0 0 0 0 0 0 0 0 0 0 0 0 0 0 0 127 0"
                           result="hardAlpha"/>
            <feOffset dy="45"/>
            <feGaussianBlur stdDeviation="40"/>
            <feColorMatrix type="matrix" values="0 0 0 0 0.223529 0 0 0 0 0.380392 0 0 0 0 0.54902 0 0 0 0.0217013 0"/>
            <feBlend mode="normal" in2="effect4_dropShadow_53_6137" result="effect5_dropShadow_53_6137"/>
            <feBlend mode="normal" in="SourceGraphic" in2="effect5_dropShadow_53_6137" result="shape"/>
        </filter>
        <linearGradient id="paint0_linear_53_6137" x1="103.537" y1="89.6632" x2="119.103" y2="21.5933"
                        gradientUnits="userSpaceOnUse">
            <stop stop-color="white"/>
            <stop offset="1" stop-color="white"/>
        </linearGradient>
        <linearGradient id="paint1_linear_53_6137" x1="103.537" y1="89.6632" x2="119.103" y2="21.5933"
                        gradientUnits="userSpaceOnUse">
            <stop stop-color="white"/>
            <stop offset="1" stop-color="#EEF9FF"/>
        </linearGradient>
        <linearGradient id="paint2_linear_53_6137" x1="113.583" y1="42.5999" x2="113.583" y2="68.3332"
                        gradientUnits="userSpaceOnUse">
            <stop stop-color="#0068A0"/>
            <stop offset="1" stop-color="#1793D6"/>
        </linearGradient>
    </defs>
</svg>
